<?xml version="1.0" standalone="no"?>
<!DOCTYPE svg PUBLIC "-//W3C//DTD SVG 20010904//EN"
 "http://www.w3.org/TR/2001/REC-SVG-20010904/DTD/svg10.dtd">
<svg version="1.0" xmlns="http://www.w3.org/2000/svg"
 width="64.000000pt" height="64.000000pt" viewBox="0 0 64.000000 64.000000"
 preserveAspectRatio="xMidYMid meet">

<g transform="translate(0.000000,64.000000) scale(0.100000,-0.100000)"
fill="#000000" stroke="none">
<path d="M303 572 c-22 -14 -27 -67 -8 -85 21 -21 29 -21 50 0 25 25 7 93 -25
93 -3 0 -11 -4 -17 -8z"/>
<path d="M135 499 c-12 -19 5 -59 30 -71 30 -14 55 -4 55 22 0 40 -67 79 -85
49z"/>
<path d="M440 490 c-27 -27 -23 -64 7 -68 28 -4 65 33 61 61 -4 30 -41 34 -68
7z"/>
<path d="M281 427 c-69 -24 -98 -116 -54 -175 39 -53 134 -60 177 -13 80 89
-10 227 -123 188z"/>
<path d="M88 353 c-19 -5 -30 -27 -22 -47 5 -13 34 -26 61 -26 13 0 43 27 43
40 0 5 -7 16 -16 24 -15 16 -32 18 -66 9z"/>
<path d="M486 347 c-13 -9 -16 -20 -12 -35 8 -25 35 -35 69 -27 43 11 46 58 4
69 -32 8 -41 7 -61 -7z"/>
<path d="M150 200 c-27 -27 -23 -64 7 -68 28 -4 65 33 61 61 -4 30 -41 34 -68
7z"/>
<path d="M425 209 c-12 -19 5 -59 30 -71 30 -14 55 -4 55 22 0 40 -67 79 -85
49z"/>
<path d="M290 149 c-14 -25 -4 -75 16 -83 21 -8 41 3 48 27 9 34 7 44 -10 61
-21 22 -41 20 -54 -5z"/>
</g>
</svg>
