<?xml version="1.0" standalone="no"?>
<!DOCTYPE svg PUBLIC "-//W3C//DTD SVG 20010904//EN"
 "http://www.w3.org/TR/2001/REC-SVG-20010904/DTD/svg10.dtd">
<svg version="1.0" xmlns="http://www.w3.org/2000/svg"
 width="64.000000pt" height="64.000000pt" viewBox="0 0 64.000000 64.000000"
 preserveAspectRatio="xMidYMid meet">

<g transform="translate(0.000000,64.000000) scale(0.100000,-0.100000)"
fill="#000000" stroke="none">
<path d="M151 535 c-119 -111 -121 -276 -6 -392 112 -112 269 -111 382 3 50
50 65 85 32 75 -99 -29 -116 -31 -162 -21 -62 13 -94 30 -134 72 -66 69 -89
166 -58 253 22 60 3 64 -54 10z m21 -81 c-3 -65 0 -83 23 -129 51 -106 152
-162 272 -152 62 5 64 4 47 -14 -9 -11 -41 -31 -71 -45 -45 -22 -63 -26 -122
-22 -88 5 -152 42 -196 112 -41 67 -48 171 -15 237 17 33 57 89 64 89 1 0 0
-34 -2 -76z"/>
</g>
</svg>
